<svg width="100" height="100" viewBox="0 0 512 512" fill="none" xmlns="http://www.w3.org/2000/svg">
<g clip-path="url(#clip0)">
<path d="M159.185 14.924L22.1647 46.1575L62.7854 247.284L199.806 216.051L159.185 14.924Z" fill="#E0E0E0"/>
<g opacity="0.5">
<path opacity="0.5" d="M157.558 18.8523L25.1685 49.0302L64.4162 243.359L196.806 213.181L157.558 18.8523Z" fill="url(#paint0_linear)"/>
</g>
<path d="M156.16 20.6669L27.1409 50.0765L65.5215 240.111L194.54 210.702L156.16 20.6669Z" fill="#FAFAFA"/>
<path d="M122.158 19.8L58.1534 34.3897L61.48 50.8611L125.485 36.2713L122.158 19.8Z" fill="url(#paint1_linear)"/>
<path d="M86.9045 11.0071C81.963 12.1348 78.8365 17.4049 79.9236 22.7773C81.0106 28.1497 85.8944 31.5973 90.8263 30.4697C95.7582 29.3421 98.8944 24.0719 97.8073 18.6995C96.7202 13.3271 91.846 9.8795 86.9045 11.0071ZM90.0054 26.3714C88.961 26.636 87.8661 26.5643 86.8603 26.1654C85.8544 25.7664 84.9832 25.0584 84.3575 24.1314C83.7319 23.2044 83.3802 22.1006 83.3473 20.9605C83.3143 19.8204 83.6017 18.6957 84.1727 17.7297C84.7437 16.7638 85.5725 16.0003 86.5534 15.5366C87.5344 15.073 88.6231 14.9301 89.6807 15.1262C90.7384 15.3223 91.7172 15.8485 92.4923 16.6378C93.2674 17.4271 93.8038 18.4437 94.033 19.558C94.1914 20.2864 94.2128 21.0409 94.0959 21.7781C93.979 22.5153 93.7262 23.2208 93.3519 23.8539C92.9777 24.487 92.4894 25.0353 91.9151 25.4673C91.3408 25.8994 90.6918 26.2066 90.0054 26.3714Z" fill="url(#paint2_linear)"/>
<path d="M121.341 19.2472L58.6847 33.5296L61.8647 49.2748L124.521 34.9924L121.341 19.2472Z" fill="#536DFE"/>
<path d="M86.9045 11.0071C85.1726 11.402 83.5898 12.3337 82.3563 13.6842C81.1228 15.0348 80.294 16.7436 79.9746 18.5946C79.6552 20.4456 79.8596 22.3556 80.562 24.0832C81.2644 25.8107 82.4332 27.2782 83.9206 28.3001C85.408 29.322 87.1473 29.8523 88.9184 29.8241C90.6896 29.7959 92.4131 29.2103 93.871 28.1415C95.3289 27.0727 96.4557 25.5686 97.109 23.8194C97.7623 22.0702 97.9127 20.1545 97.5411 18.3145C97.2944 17.0927 96.8236 15.9345 96.1555 14.906C95.4874 13.8775 94.6352 12.9989 93.6475 12.3203C92.6598 11.6417 91.5559 11.1765 90.399 10.9512C89.242 10.7259 88.0546 10.7449 86.9045 11.0071ZM89.8675 25.6901C88.8679 25.918 87.827 25.8258 86.8767 25.4252C85.9263 25.0246 85.1092 24.3336 84.5285 23.4396C83.9478 22.5456 83.6297 21.4888 83.6144 20.4027C83.5991 19.3166 83.8874 18.2502 84.4427 17.3381C84.9979 16.4261 85.7953 15.7095 86.734 15.2789C87.6726 14.8483 88.7104 14.7232 89.716 14.9192C90.7216 15.1153 91.6499 15.6237 92.3836 16.3803C93.1172 17.1369 93.6231 18.1076 93.8374 19.1696C94.1247 20.5935 93.8679 22.0804 93.1234 23.3032C92.3789 24.526 91.2078 25.3845 89.8675 25.6901Z" fill="#536DFE"/>
<path d="M222.836 39.8279H82.6974V245.532H222.836V39.8279Z" fill="#E0E0E0"/>
<g opacity="0.5">
<path opacity="0.5" d="M220.47 43.3062H85.0671V242.058H220.47V43.3062Z" fill="url(#paint3_linear)"/>
</g>
<path d="M218.744 44.7711H86.7891V239.131H218.744V44.7711Z" fill="white"/>
<path d="M185.671 36.3429H120.209V53.1891H185.671V36.3429Z" fill="url(#paint4_linear)"/>
<path d="M152.94 19.8986C147.886 19.8986 143.788 24.3546 143.788 29.8531C143.788 35.3515 147.886 39.8075 152.94 39.8075C157.994 39.8075 162.092 35.3515 162.092 29.8531C162.092 24.3546 157.994 19.8986 152.94 19.8986ZM152.94 35.5968C151.866 35.6239 150.808 35.3102 149.902 34.6957C148.996 34.0813 148.283 33.194 147.854 32.1472C147.426 31.1003 147.3 29.9414 147.494 28.8184C147.688 27.6954 148.192 26.6593 148.943 25.8423C149.694 25.0253 150.657 24.4646 151.709 24.2317C152.761 23.9988 153.854 24.1043 154.85 24.5348C155.845 24.9652 156.697 25.701 157.297 26.6483C157.897 27.5956 158.218 28.7113 158.218 29.8531C158.228 31.3537 157.679 32.7975 156.69 33.8688C155.701 34.9401 154.352 35.5516 152.94 35.5695V35.5968Z" fill="url(#paint5_linear)"/>
<path d="M184.981 35.6207H120.899V51.7242H184.981V35.6207Z" fill="#536DFE"/>
<path d="M152.94 19.8986C151.169 19.8986 149.437 20.4567 147.964 21.5022C146.491 22.5477 145.343 24.0337 144.665 25.7724C143.988 27.511 143.81 29.4242 144.156 31.2699C144.501 33.1156 145.354 34.811 146.607 36.1417C147.859 37.4724 149.455 38.3786 151.193 38.7457C152.93 39.1129 154.731 38.9244 156.367 38.2043C158.004 37.4841 159.403 36.2646 160.387 34.6998C161.371 33.1351 161.896 31.2955 161.896 29.4136C161.896 26.8901 160.953 24.4699 159.273 22.6855C157.593 20.9011 155.315 19.8986 152.94 19.8986ZM152.94 34.9052C151.918 34.9039 150.92 34.581 150.071 33.9773C149.222 33.3737 148.561 32.5164 148.17 31.5136C147.779 30.5108 147.677 29.4075 147.876 28.3431C148.075 27.2786 148.567 26.3007 149.289 25.5328C150.011 24.765 150.931 24.2415 151.932 24.0287C152.934 23.8158 153.973 23.923 154.917 24.3367C155.862 24.7505 156.669 25.4523 157.239 26.3534C157.808 27.2546 158.113 28.3147 158.116 29.4C158.115 30.1214 157.981 30.8357 157.721 31.5021C157.46 32.1684 157.079 32.7737 156.598 33.2833C156.117 33.793 155.547 34.1971 154.919 34.4725C154.292 34.7478 153.619 34.8891 152.94 34.8882V34.9052Z" fill="#536DFE"/>
<g opacity="0.5">
<path opacity="0.5" d="M6.10238 251.092H4.89667V258.359H6.10238V251.092Z" fill="#47E6B1"/>
<path opacity="0.5" d="M8.92102 255.368V254.087H2.08116V255.368H8.92102Z" fill="#47E6B1"/>
</g>
<g opacity="0.5">
<path opacity="0.5" d="M145.985 0H144.779V7.26653H145.985V0Z" fill="#47E6B1"/>
<path opacity="0.5" d="M148.803 4.27201V2.9911L141.963 2.9911V4.27201H148.803Z" fill="#47E6B1"/>
</g>
<path opacity="0.5" d="M247.262 263.189C246.929 263.036 246.661 262.757 246.509 262.407C246.357 262.058 246.332 261.661 246.437 261.292C246.454 261.236 246.465 261.177 246.47 261.118C246.479 260.949 246.437 260.782 246.35 260.64C246.263 260.499 246.136 260.391 245.986 260.332C245.837 260.274 245.674 260.268 245.521 260.316C245.369 260.363 245.235 260.462 245.139 260.597C245.105 260.644 245.077 260.696 245.055 260.75C244.911 261.104 244.649 261.388 244.319 261.549C243.99 261.711 243.616 261.738 243.269 261.626C243.216 261.608 243.161 261.596 243.106 261.592C242.947 261.582 242.789 261.626 242.656 261.718C242.523 261.811 242.421 261.946 242.366 262.105C242.311 262.264 242.306 262.437 242.35 262.599C242.395 262.761 242.488 262.904 242.615 263.005C242.66 263.041 242.708 263.071 242.759 263.094C243.092 263.248 243.36 263.526 243.512 263.876C243.664 264.226 243.689 264.623 243.583 264.992C243.566 265.048 243.556 265.106 243.551 265.165C243.542 265.334 243.584 265.502 243.671 265.643C243.758 265.785 243.885 265.893 244.035 265.951C244.184 266.009 244.347 266.015 244.5 265.968C244.652 265.92 244.786 265.821 244.882 265.687C244.916 265.639 244.944 265.588 244.966 265.533C245.11 265.18 245.372 264.896 245.702 264.734C246.031 264.573 246.405 264.545 246.752 264.658C246.805 264.676 246.86 264.687 246.915 264.692C247.074 264.702 247.232 264.658 247.365 264.565C247.498 264.473 247.6 264.337 247.655 264.178C247.71 264.02 247.715 263.847 247.671 263.685C247.626 263.522 247.533 263.38 247.406 263.278C247.361 263.243 247.313 263.213 247.262 263.189Z" fill="#4D8AF0"/>
<path opacity="0.5" d="M43.8259 193.331C43.4933 193.177 43.2256 192.899 43.0736 192.549C42.9217 192.199 42.8961 191.802 43.0018 191.434C43.0188 191.377 43.0296 191.319 43.0338 191.26C43.0434 191.091 43.0016 190.924 42.9146 190.782C42.8275 190.641 42.6999 190.533 42.5507 190.474C42.4014 190.416 42.2383 190.41 42.0857 190.458C41.933 190.505 41.7989 190.604 41.703 190.739C41.6697 190.786 41.6417 190.838 41.6197 190.892C41.4749 191.245 41.2129 191.53 40.8836 191.691C40.5542 191.853 40.1805 191.88 39.8335 191.768C39.7805 191.749 39.7256 191.738 39.67 191.734C39.5112 191.723 39.3535 191.768 39.2203 191.86C39.0871 191.953 38.9855 192.088 38.9304 192.247C38.8754 192.405 38.8699 192.579 38.9147 192.741C38.9596 192.903 39.0524 193.046 39.1794 193.147C39.224 193.183 39.2725 193.212 39.3237 193.236C39.6562 193.39 39.924 193.668 40.0759 194.018C40.2279 194.368 40.2535 194.765 40.1478 195.133C40.1307 195.19 40.12 195.248 40.1157 195.307C40.1062 195.476 40.148 195.643 40.235 195.785C40.322 195.926 40.4496 196.034 40.5989 196.093C40.7482 196.151 40.9112 196.157 41.0639 196.11C41.2165 196.062 41.3507 195.963 41.4465 195.828C41.4799 195.781 41.5078 195.729 41.5299 195.675C41.6747 195.322 41.9366 195.037 42.266 194.876C42.5953 194.714 42.969 194.687 43.316 194.8C43.3691 194.818 43.424 194.829 43.4796 194.834C43.6384 194.844 43.796 194.799 43.9292 194.707C44.0624 194.614 44.1641 194.479 44.2191 194.32C44.2742 194.162 44.2797 193.989 44.2348 193.826C44.19 193.664 44.0972 193.522 43.9702 193.42C43.9255 193.384 43.8771 193.355 43.8259 193.331Z" fill="#FDD835"/>
<path opacity="0.5" d="M213.271 23.227C212.938 23.0732 212.67 22.7949 212.518 22.445C212.366 22.0951 212.341 21.6981 212.447 21.3295C212.464 21.2731 212.474 21.2148 212.479 21.1557C212.488 20.987 212.446 20.8195 212.359 20.678C212.272 20.5365 212.145 20.4285 211.995 20.37C211.846 20.3116 211.683 20.3057 211.53 20.3533C211.378 20.401 211.244 20.4996 211.148 20.6345C211.114 20.682 211.086 20.7334 211.064 20.7878C210.92 21.1411 210.658 21.4255 210.328 21.587C209.999 21.7484 209.625 21.7756 209.278 21.6633C209.225 21.6452 209.17 21.6338 209.115 21.6293C208.956 21.6191 208.798 21.6635 208.665 21.756C208.532 21.8484 208.43 21.984 208.375 22.1426C208.32 22.3012 208.315 22.4744 208.359 22.6365C208.404 22.7987 208.497 22.9413 208.624 23.043C208.669 23.0785 208.717 23.1082 208.768 23.1316C209.101 23.2854 209.369 23.5637 209.521 23.9136C209.673 24.2635 209.698 24.6605 209.593 25.0292C209.576 25.0855 209.565 25.1439 209.56 25.2029C209.551 25.3716 209.593 25.5391 209.68 25.6806C209.767 25.8222 209.894 25.9301 210.044 25.9886C210.193 26.0471 210.356 26.0529 210.509 26.0053C210.661 25.9577 210.795 25.8591 210.891 25.7241C210.925 25.6767 210.953 25.6252 210.975 25.5708C211.119 25.2175 211.381 24.9331 211.711 24.7716C212.04 24.6102 212.414 24.583 212.761 24.6953C212.814 24.7134 212.869 24.7249 212.924 24.7294C213.083 24.7395 213.241 24.6951 213.374 24.6027C213.507 24.5102 213.609 24.3747 213.664 24.2161C213.719 24.0575 213.724 23.8843 213.68 23.7221C213.635 23.5599 213.542 23.4174 213.415 23.3156C213.37 23.2802 213.322 23.2504 213.271 23.227Z" fill="#FDD835"/>
<path opacity="0.5" d="M260.589 109.696C261.922 109.696 263.003 108.548 263.003 107.131C263.003 105.714 261.922 104.566 260.589 104.566C259.255 104.566 258.174 105.714 258.174 107.131C258.174 108.548 259.255 109.696 260.589 109.696Z" fill="#F55F44"/>
<path opacity="0.5" d="M73.988 256.928C75.3216 256.928 76.4026 255.779 76.4026 254.363C76.4026 252.946 75.3216 251.797 73.988 251.797C72.6544 251.797 71.5734 252.946 71.5734 254.363C71.5734 255.779 72.6544 256.928 73.988 256.928Z" fill="#F55F44"/>
<path opacity="0.5" d="M235.791 165.144C237.125 165.144 238.206 163.996 238.206 162.579C238.206 161.162 237.125 160.014 235.791 160.014C234.458 160.014 233.377 161.162 233.377 162.579C233.377 163.996 234.458 165.144 235.791 165.144Z" fill="#F55F44"/>
<path opacity="0.5" d="M27.9431 35.389C29.2766 35.389 30.3577 34.2405 30.3577 32.8237C30.3577 31.407 29.2766 30.2585 27.9431 30.2585C26.6095 30.2585 25.5284 31.407 25.5284 32.8237C25.5284 34.2405 26.6095 35.389 27.9431 35.389Z" fill="#4D8AF0"/>
<path opacity="0.5" d="M2.41464 105.366C3.74821 105.366 4.82928 104.218 4.82928 102.801C4.82928 101.384 3.74821 100.236 2.41464 100.236C1.08107 100.236 0 101.384 0 102.801C0 104.218 1.08107 105.366 2.41464 105.366Z" fill="#47E6B1"/>
<path d="M207 161.193H99V184H207V161.193Z" fill="#E6E6E6"/>
<path d="M207 125.156H99V147.963H207V125.156Z" fill="#E6E6E6"/>
<path d="M207 89H99V111.807H207V89Z" fill="#E6E6E6"/>
<path d="M101.302 109.344H204.698V91.4626H101.302V109.344Z" fill="white"/>
<path d="M101.302 145.58H204.698V127.698H101.302V145.58Z" fill="white"/>
<path d="M110.354 107.068C113.872 107.068 116.723 104.018 116.723 100.255C116.723 96.4929 113.872 93.4429 110.354 93.4429C106.836 93.4429 103.985 96.4929 103.985 100.255C103.985 104.018 106.836 107.068 110.354 107.068Z" fill="#536DFE"/>
<path d="M188.446 98.2163H125.585V99.6973H188.446V98.2163Z" fill="#536DFE"/>
<path d="M188.446 103.947H125.585V105.428H188.446V103.947Z" fill="#536DFE"/>
<path d="M110.354 143.52C113.872 143.52 116.723 140.47 116.723 136.707C116.723 132.945 113.872 129.895 110.354 129.895C106.836 129.895 103.985 132.945 103.985 136.707C103.985 140.47 106.836 143.52 110.354 143.52Z" fill="#CCCCCC"/>
<path d="M188.446 134.042H125.585V135.523H188.446V134.042Z" fill="#CCCCCC"/>
<path d="M188.446 137.892H125.585V139.373H188.446V137.892Z" fill="#CCCCCC"/>
<path d="M110.354 179.557C113.872 179.557 116.723 176.507 116.723 172.745C116.723 168.982 113.872 165.932 110.354 165.932C106.836 165.932 103.985 168.982 103.985 172.745C103.985 176.507 106.836 179.557 110.354 179.557Z" fill="#CCCCCC"/>
<path d="M188.446 170.079H125.585V171.56H188.446V170.079Z" fill="#CCCCCC"/>
<path d="M188.446 173.929H125.585V175.41H188.446V173.929Z" fill="#CCCCCC"/>
</g>
<defs>
<linearGradient id="paint0_linear" x1="130.609" y1="228.27" x2="86.5619" y2="35.0357" gradientUnits="userSpaceOnUse">
<stop stop-color="#808080" stop-opacity="0.25"/>
<stop offset="0.54" stop-color="#808080" stop-opacity="0.12"/>
<stop offset="1" stop-color="#808080" stop-opacity="0.1"/>
</linearGradient>
<linearGradient id="paint1_linear" x1="35211.5" y1="-4871.23" x2="35026.9" y2="-5681.15" gradientUnits="userSpaceOnUse">
<stop stop-color="#808080" stop-opacity="0.25"/>
<stop offset="0.54" stop-color="#808080" stop-opacity="0.12"/>
<stop offset="1" stop-color="#808080" stop-opacity="0.1"/>
</linearGradient>
<linearGradient id="paint2_linear" x1="10281.9" y1="555.625" x2="10024.3" y2="-574.286" gradientUnits="userSpaceOnUse">
<stop stop-color="#808080" stop-opacity="0.25"/>
<stop offset="0.54" stop-color="#808080" stop-opacity="0.12"/>
<stop offset="1" stop-color="#808080" stop-opacity="0.1"/>
</linearGradient>
<linearGradient id="paint3_linear" x1="64590.8" y1="141262" x2="64590.8" y2="25308.6" gradientUnits="userSpaceOnUse">
<stop stop-color="#808080" stop-opacity="0.25"/>
<stop offset="0.54" stop-color="#808080" stop-opacity="0.12"/>
<stop offset="1" stop-color="#808080" stop-opacity="0.1"/>
</linearGradient>
<linearGradient id="paint4_linear" x1="31341.4" y1="2666.55" x2="31341.4" y2="1833.5" gradientUnits="userSpaceOnUse">
<stop stop-color="#808080" stop-opacity="0.25"/>
<stop offset="0.54" stop-color="#808080" stop-opacity="0.12"/>
<stop offset="1" stop-color="#808080" stop-opacity="0.1"/>
</linearGradient>
<linearGradient id="paint5_linear" x1="12349.9" y1="3531.62" x2="12349.9" y2="2368.15" gradientUnits="userSpaceOnUse">
<stop stop-color="#808080" stop-opacity="0.25"/>
<stop offset="0.54" stop-color="#808080" stop-opacity="0.12"/>
<stop offset="1" stop-color="#808080" stop-opacity="0.1"/>
</linearGradient>
<clipPath id="clip0">
<rect width="263" height="266" fill="white"/>
</clipPath>
</defs>
</svg>
